<svg width="377" height="60" viewBox="0 0 377 60" fill="none" xmlns="http://www.w3.org/2000/svg">
<rect x="0.502686" y="0.783287" width="58.4329" height="58.4329" rx="14.0239" fill="#34C759"/>
<path d="M36.5377 33.9643V22.1693H45.5252V34.5293C45.5595 43.2257 38.438 45.7251 29.81 45.7422C21.182 45.7251 14.0605 43.2257 14.0947 34.5293V22.1693H23.0651V33.9643C23.0308 37.7476 26.1294 38.3982 29.81 38.4495C33.4734 38.3982 36.5891 37.7476 36.5377 33.9643Z" fill="white"/>
<rect x="36.3367" y="17.4944" width="9.34927" height="8.99867" fill="#34C759"/>
<circle cx="41.0113" cy="18.8968" r="4.67463" fill="white"/>
<path d="M85.4632 18.227H89.6791V33.4316C89.6791 35.0982 89.2852 36.5641 88.4973 37.8293C87.717 39.0945 86.6185 40.0831 85.2019 40.7952C83.7852 41.4998 82.1299 41.852 80.236 41.852C78.3344 41.852 76.6753 41.4998 75.2587 40.7952C73.842 40.0831 72.7435 39.0945 71.9632 37.8293C71.1829 36.5641 70.7928 35.0982 70.7928 33.4316V18.227H75.0087V33.0793C75.0087 34.049 75.2208 34.9126 75.645 35.6702C76.0769 36.4278 76.6829 37.0225 77.4632 37.4543C78.2435 37.8785 79.1678 38.0907 80.236 38.0907C81.3041 38.0907 82.2284 37.8785 83.0087 37.4543C83.7966 37.0225 84.4026 36.4278 84.8269 35.6702C85.2511 34.9126 85.4632 34.049 85.4632 33.0793V18.227ZM97.2333 31.2725V41.4998H93.1197V24.0452H97.0515V27.0111H97.2561C97.6576 26.0338 98.2977 25.2573 99.1765 24.6816C100.063 24.1058 101.158 23.8179 102.461 23.8179C103.665 23.8179 104.714 24.0755 105.608 24.5907C106.51 25.1058 107.207 25.852 107.699 26.8293C108.199 27.8066 108.445 28.9922 108.438 30.3861V41.4998H104.324V31.0225C104.324 29.8558 104.021 28.9429 103.415 28.2838C102.817 27.6248 101.987 27.2952 100.927 27.2952C100.207 27.2952 99.5667 27.4543 99.0061 27.7725C98.453 28.0831 98.0174 28.5338 97.6992 29.1248C97.3886 29.7157 97.2333 30.4316 97.2333 31.2725ZM115.773 18.227V41.4998H111.66V18.227H115.773ZM119.043 41.4998V24.0452H123.157V41.4998H119.043ZM121.112 21.5679C120.46 21.5679 119.9 21.352 119.43 20.9202C118.96 20.4808 118.725 19.9543 118.725 19.3407C118.725 18.7195 118.96 18.1929 119.43 17.7611C119.9 17.3217 120.46 17.102 121.112 17.102C121.771 17.102 122.331 17.3217 122.793 17.7611C123.263 18.1929 123.498 18.7195 123.498 19.3407C123.498 19.9543 123.263 20.4808 122.793 20.9202C122.331 21.352 121.771 21.5679 121.112 21.5679ZM140.223 28.6588L136.473 29.0679C136.367 28.6891 136.181 28.3331 135.916 27.9998C135.658 27.6664 135.31 27.3975 134.87 27.1929C134.431 26.9884 133.893 26.8861 133.257 26.8861C132.401 26.8861 131.681 27.0717 131.098 27.4429C130.522 27.8141 130.238 28.2952 130.245 28.8861C130.238 29.3937 130.423 29.8066 130.802 30.1248C131.189 30.4429 131.825 30.7043 132.711 30.9088L135.689 31.5452C137.34 31.9013 138.567 32.4657 139.37 33.2384C140.181 34.0111 140.59 35.0225 140.598 36.2725C140.59 37.371 140.268 38.3407 139.632 39.1816C139.003 40.0149 138.128 40.6664 137.007 41.1361C135.886 41.6058 134.598 41.8407 133.143 41.8407C131.007 41.8407 129.287 41.3937 127.984 40.4998C126.681 39.5982 125.904 38.3445 125.654 36.7384L129.666 36.352C129.848 37.1399 130.234 37.7346 130.825 38.1361C131.416 38.5376 132.185 38.7384 133.132 38.7384C134.109 38.7384 134.893 38.5376 135.484 38.1361C136.083 37.7346 136.382 37.2384 136.382 36.6475C136.382 36.1475 136.189 35.7346 135.802 35.4088C135.423 35.0831 134.833 34.8331 134.029 34.6588L131.052 34.0338C129.378 33.6854 128.139 33.0982 127.336 32.2725C126.533 31.4391 126.136 30.3861 126.143 29.1134C126.136 28.0376 126.427 27.1058 127.018 26.3179C127.617 25.5225 128.446 24.9088 129.507 24.477C130.575 24.0376 131.806 23.8179 133.2 23.8179C135.245 23.8179 136.855 24.2535 138.029 25.1248C139.211 25.996 139.942 27.174 140.223 28.6588ZM151.746 24.0452V27.227H141.712V24.0452H151.746ZM144.189 19.8634H148.302V36.2498C148.302 36.8028 148.386 37.227 148.552 37.5225C148.727 37.8104 148.954 38.0073 149.234 38.1134C149.515 38.2195 149.825 38.2725 150.166 38.2725C150.424 38.2725 150.658 38.2535 150.871 38.2157C151.09 38.1778 151.257 38.1437 151.371 38.1134L152.064 41.3293C151.844 41.4051 151.53 41.4884 151.121 41.5793C150.719 41.6702 150.227 41.7232 149.643 41.7384C148.613 41.7687 147.685 41.6134 146.859 41.2725C146.033 40.924 145.378 40.3861 144.893 39.6588C144.416 38.9316 144.181 38.0225 144.189 36.9316V19.8634ZM161.766 41.8407C160.016 41.8407 158.504 41.477 157.232 40.7498C155.966 40.0149 154.993 38.977 154.311 37.6361C153.629 36.2876 153.288 34.7005 153.288 32.8748C153.288 31.0793 153.629 29.5035 154.311 28.1475C155.001 26.7838 155.963 25.7232 157.198 24.9657C158.432 24.2005 159.883 23.8179 161.55 23.8179C162.626 23.8179 163.641 23.9922 164.595 24.3407C165.557 24.6816 166.406 25.2119 167.141 25.9316C167.883 26.6513 168.466 27.5679 168.891 28.6816C169.315 29.7876 169.527 31.1058 169.527 32.6361V33.8975H155.22V31.1248H165.584C165.576 30.3369 165.406 29.6361 165.073 29.0225C164.739 28.4013 164.273 27.9126 163.675 27.5566C163.084 27.2005 162.395 27.0225 161.607 27.0225C160.766 27.0225 160.027 27.227 159.391 27.6361C158.754 28.0376 158.258 28.5679 157.902 29.227C157.554 29.8785 157.376 30.5945 157.368 31.3748V33.7952C157.368 34.8104 157.554 35.6816 157.925 36.4088C158.296 37.1285 158.815 37.6816 159.482 38.0679C160.148 38.4467 160.929 38.6361 161.823 38.6361C162.421 38.6361 162.963 38.5528 163.448 38.3861C163.932 38.2119 164.353 37.9581 164.709 37.6248C165.065 37.2914 165.334 36.8785 165.516 36.3861L169.357 36.8179C169.114 37.8331 168.652 38.7195 167.97 39.477C167.296 40.227 166.432 40.8104 165.379 41.227C164.326 41.6361 163.122 41.8407 161.766 41.8407ZM178.524 41.8066C177.153 41.8066 175.926 41.4543 174.843 40.7498C173.759 40.0452 172.903 39.0225 172.274 37.6816C171.646 36.3407 171.331 34.7119 171.331 32.7952C171.331 30.8558 171.649 29.2195 172.286 27.8861C172.93 26.5452 173.797 25.5338 174.888 24.852C175.979 24.1626 177.195 23.8179 178.536 23.8179C179.559 23.8179 180.399 23.9922 181.059 24.3407C181.718 24.6816 182.24 25.0945 182.627 25.5793C183.013 26.0566 183.312 26.5073 183.524 26.9316H183.695V18.227H187.82V41.4998H183.774V38.7498H183.524C183.312 39.174 183.006 39.6248 182.604 40.102C182.203 40.5717 181.672 40.9732 181.013 41.3066C180.354 41.6399 179.524 41.8066 178.524 41.8066ZM179.672 38.4316C180.543 38.4316 181.286 38.1967 181.899 37.727C182.513 37.2498 182.979 36.5869 183.297 35.7384C183.615 34.8899 183.774 33.9013 183.774 32.7725C183.774 31.6437 183.615 30.6626 183.297 29.8293C182.987 28.996 182.524 28.3482 181.911 27.8861C181.305 27.424 180.559 27.1929 179.672 27.1929C178.756 27.1929 177.99 27.4316 177.377 27.9088C176.763 28.3861 176.301 29.0452 175.99 29.8861C175.68 30.727 175.524 31.6891 175.524 32.7725C175.524 33.8634 175.68 34.8369 175.99 35.6929C176.309 36.5414 176.774 37.2119 177.388 37.7043C178.009 38.1891 178.771 38.4316 179.672 38.4316ZM211.05 24.6248C210.944 23.6323 210.497 22.8596 209.71 22.3066C208.929 21.7535 207.914 21.477 206.664 21.477C205.785 21.477 205.032 21.6096 204.403 21.8748C203.774 22.1399 203.293 22.4998 202.96 22.9543C202.626 23.4088 202.456 23.9278 202.448 24.5111C202.448 24.996 202.558 25.4164 202.778 25.7725C203.005 26.1285 203.312 26.4316 203.698 26.6816C204.085 26.924 204.513 27.1285 204.982 27.2952C205.452 27.4619 205.925 27.602 206.403 27.7157L208.585 28.2611C209.463 28.4657 210.308 28.7422 211.119 29.0907C211.937 29.4391 212.668 29.8785 213.312 30.4088C213.963 30.9391 214.479 31.5793 214.857 32.3293C215.236 33.0793 215.425 33.9581 215.425 34.9657C215.425 36.3293 215.077 37.5301 214.38 38.5679C213.683 39.5982 212.675 40.4051 211.357 40.9884C210.047 41.5641 208.46 41.852 206.596 41.852C204.785 41.852 203.213 41.5717 201.88 41.0111C200.554 40.4505 199.516 39.6323 198.766 38.5566C198.024 37.4808 197.622 36.1702 197.562 34.6248H201.71C201.77 35.4354 202.02 36.1096 202.46 36.6475C202.899 37.1854 203.471 37.5869 204.175 37.852C204.888 38.1172 205.683 38.2498 206.562 38.2498C207.479 38.2498 208.282 38.1134 208.971 37.8407C209.668 37.5604 210.213 37.174 210.607 36.6816C211.001 36.1816 211.202 35.5982 211.21 34.9316C211.202 34.3255 211.024 33.8255 210.675 33.4316C210.327 33.0301 209.838 32.6967 209.21 32.4316C208.588 32.1588 207.861 31.9164 207.028 31.7043L204.38 31.0225C202.463 30.5301 200.948 29.7838 199.835 28.7838C198.729 27.7763 198.175 26.4391 198.175 24.7725C198.175 23.4013 198.547 22.2005 199.289 21.1702C200.039 20.1399 201.058 19.3407 202.346 18.7725C203.634 18.1967 205.092 17.9088 206.721 17.9088C208.372 17.9088 209.819 18.1967 211.062 18.7725C212.312 19.3407 213.293 20.1323 214.005 21.1475C214.717 22.1551 215.085 23.3141 215.107 24.6248H211.05ZM222.156 31.2725V41.4998H218.042V18.227H222.065V27.0111H222.269C222.679 26.0263 223.311 25.2498 224.167 24.6816C225.031 24.1058 226.129 23.8179 227.463 23.8179C228.675 23.8179 229.732 24.0717 230.633 24.5793C231.535 25.0869 232.232 25.8293 232.724 26.8066C233.224 27.7838 233.474 28.977 233.474 30.3861V41.4998H229.36V31.0225C229.36 29.8482 229.057 28.9354 228.451 28.2838C227.853 27.6248 227.012 27.2952 225.929 27.2952C225.201 27.2952 224.55 27.4543 223.974 27.7725C223.406 28.0831 222.959 28.5338 222.633 29.1248C222.315 29.7157 222.156 30.4316 222.156 31.2725ZM241.73 41.852C240.624 41.852 239.628 41.6551 238.741 41.2611C237.863 40.8596 237.166 40.2687 236.65 39.4884C236.143 38.7081 235.889 37.746 235.889 36.602C235.889 35.6172 236.071 34.8028 236.434 34.1588C236.798 33.5149 237.294 32.9998 237.923 32.6134C238.552 32.227 239.26 31.9354 240.048 31.7384C240.844 31.5338 241.666 31.3861 242.514 31.2952C243.537 31.1891 244.366 31.0945 245.003 31.0111C245.639 30.9202 246.101 30.7838 246.389 30.602C246.684 30.4126 246.832 30.121 246.832 29.727V29.6588C246.832 28.8028 246.578 28.1399 246.071 27.6702C245.563 27.2005 244.832 26.9657 243.878 26.9657C242.87 26.9657 242.071 27.1854 241.48 27.6248C240.897 28.0641 240.503 28.5831 240.298 29.1816L236.457 28.6361C236.76 27.5755 237.26 26.6891 237.957 25.977C238.654 25.2573 239.506 24.7195 240.514 24.3634C241.522 23.9998 242.635 23.8179 243.855 23.8179C244.696 23.8179 245.533 23.9164 246.366 24.1134C247.2 24.3104 247.961 24.6361 248.65 25.0907C249.34 25.5376 249.893 26.1475 250.309 26.9202C250.734 27.6929 250.946 28.6588 250.946 29.8179V41.4998H246.991V39.102H246.855C246.605 39.5869 246.253 40.0414 245.798 40.4657C245.351 40.8823 244.787 41.2195 244.105 41.477C243.431 41.727 242.639 41.852 241.73 41.852ZM242.798 38.8293C243.624 38.8293 244.34 38.6664 244.946 38.3407C245.552 38.0073 246.018 37.5679 246.344 37.0225C246.677 36.477 246.844 35.8823 246.844 35.2384V33.1816C246.715 33.2876 246.495 33.3861 246.184 33.477C245.881 33.5679 245.541 33.6475 245.162 33.7157C244.783 33.7838 244.408 33.8445 244.037 33.8975C243.666 33.9505 243.344 33.996 243.071 34.0338C242.457 34.1172 241.908 34.2535 241.423 34.4429C240.938 34.6323 240.556 34.8975 240.275 35.2384C239.995 35.5717 239.855 36.0035 239.855 36.5338C239.855 37.2914 240.131 37.8634 240.684 38.2498C241.238 38.6361 241.942 38.8293 242.798 38.8293ZM254.122 41.4998V24.0452H258.111V26.9543H258.293C258.611 25.9467 259.156 25.1702 259.929 24.6248C260.709 24.0717 261.599 23.7952 262.599 23.7952C262.827 23.7952 263.081 23.8066 263.361 23.8293C263.649 23.8445 263.887 23.871 264.077 23.9088V27.6929C263.903 27.6323 263.626 27.5793 263.247 27.5338C262.876 27.4808 262.516 27.4543 262.168 27.4543C261.418 27.4543 260.743 27.6172 260.145 27.9429C259.554 28.2611 259.088 28.7043 258.747 29.2725C258.406 29.8407 258.236 30.496 258.236 31.2384V41.4998H254.122ZM272.858 41.8407C271.108 41.8407 269.597 41.477 268.324 40.7498C267.059 40.0149 266.086 38.977 265.404 37.6361C264.722 36.2876 264.381 34.7005 264.381 32.8748C264.381 31.0793 264.722 29.5035 265.404 28.1475C266.093 26.7838 267.055 25.7232 268.29 24.9657C269.525 24.2005 270.976 23.8179 272.642 23.8179C273.718 23.8179 274.733 23.9922 275.688 24.3407C276.65 24.6816 277.498 25.2119 278.233 25.9316C278.976 26.6513 279.559 27.5679 279.983 28.6816C280.407 29.7876 280.62 31.1058 280.62 32.6361V33.8975H266.313V31.1248H276.676C276.669 30.3369 276.498 29.6361 276.165 29.0225C275.832 28.4013 275.366 27.9126 274.767 27.5566C274.176 27.2005 273.487 27.0225 272.699 27.0225C271.858 27.0225 271.12 27.227 270.483 27.6361C269.847 28.0376 269.351 28.5679 268.995 29.227C268.646 29.8785 268.468 30.5945 268.461 31.3748V33.7952C268.461 34.8104 268.646 35.6816 269.017 36.4088C269.389 37.1285 269.907 37.6816 270.574 38.0679C271.241 38.4467 272.021 38.6361 272.915 38.6361C273.514 38.6361 274.055 38.5528 274.54 38.3861C275.025 38.2119 275.445 37.9581 275.801 37.6248C276.157 37.2914 276.426 36.8785 276.608 36.3861L280.449 36.8179C280.207 37.8331 279.745 38.7195 279.063 39.477C278.389 40.227 277.525 40.8104 276.472 41.227C275.419 41.6361 274.214 41.8407 272.858 41.8407ZM296.935 28.6588L293.185 29.0679C293.079 28.6891 292.893 28.3331 292.628 27.9998C292.371 27.6664 292.022 27.3975 291.583 27.1929C291.143 26.9884 290.606 26.8861 289.969 26.8861C289.113 26.8861 288.393 27.0717 287.81 27.4429C287.234 27.8141 286.95 28.2952 286.958 28.8861C286.95 29.3937 287.136 29.8066 287.515 30.1248C287.901 30.4429 288.537 30.7043 289.424 30.9088L292.401 31.5452C294.053 31.9013 295.28 32.4657 296.083 33.2384C296.893 34.0111 297.303 35.0225 297.31 36.2725C297.303 37.371 296.981 38.3407 296.344 39.1816C295.715 40.0149 294.84 40.6664 293.719 41.1361C292.598 41.6058 291.31 41.8407 289.856 41.8407C287.719 41.8407 286 41.3937 284.697 40.4998C283.393 39.5982 282.617 38.3445 282.367 36.7384L286.378 36.352C286.56 37.1399 286.947 37.7346 287.537 38.1361C288.128 38.5376 288.897 38.7384 289.844 38.7384C290.822 38.7384 291.606 38.5376 292.197 38.1361C292.795 37.7346 293.094 37.2384 293.094 36.6475C293.094 36.1475 292.901 35.7346 292.515 35.4088C292.136 35.0831 291.545 34.8331 290.742 34.6588L287.765 34.0338C286.09 33.6854 284.852 33.0982 284.049 32.2725C283.246 31.4391 282.848 30.3861 282.856 29.1134C282.848 28.0376 283.14 27.1058 283.731 26.3179C284.329 25.5225 285.159 24.9088 286.219 24.477C287.287 24.0376 288.518 23.8179 289.912 23.8179C291.958 23.8179 293.568 24.2535 294.742 25.1248C295.924 25.996 296.655 27.174 296.935 28.6588ZM311.117 18.227V41.4998H306.902V18.227H311.117ZM318.655 31.2725V41.4998H314.541V24.0452H318.473V27.0111H318.677C319.079 26.0338 319.719 25.2573 320.598 24.6816C321.484 24.1058 322.579 23.8179 323.882 23.8179C325.086 23.8179 326.136 24.0755 327.03 24.5907C327.931 25.1058 328.628 25.852 329.121 26.8293C329.621 27.8066 329.867 28.9922 329.859 30.3861V41.4998H325.746V31.0225C325.746 29.8558 325.442 28.9429 324.836 28.2838C324.238 27.6248 323.408 27.2952 322.348 27.2952C321.628 27.2952 320.988 27.4543 320.427 27.7725C319.874 28.0831 319.439 28.5338 319.121 29.1248C318.81 29.7157 318.655 30.4316 318.655 31.2725ZM339.558 41.8066C338.187 41.8066 336.96 41.4543 335.876 40.7498C334.793 40.0452 333.937 39.0225 333.308 37.6816C332.679 36.3407 332.365 34.7119 332.365 32.7952C332.365 30.8558 332.683 29.2195 333.32 27.8861C333.964 26.5452 334.831 25.5338 335.922 24.852C337.013 24.1626 338.229 23.8179 339.57 23.8179C340.592 23.8179 341.433 23.9922 342.092 24.3407C342.751 24.6816 343.274 25.0945 343.66 25.5793C344.047 26.0566 344.346 26.5073 344.558 26.9316H344.729V18.227H348.854V41.4998H344.808V38.7498H344.558C344.346 39.174 344.039 39.6248 343.638 40.102C343.236 40.5717 342.706 40.9732 342.047 41.3066C341.388 41.6399 340.558 41.8066 339.558 41.8066ZM340.706 38.4316C341.577 38.4316 342.32 38.1967 342.933 37.727C343.547 37.2498 344.013 36.5869 344.331 35.7384C344.649 34.8899 344.808 33.9013 344.808 32.7725C344.808 31.6437 344.649 30.6626 344.331 29.8293C344.02 28.996 343.558 28.3482 342.945 27.8861C342.339 27.424 341.592 27.1929 340.706 27.1929C339.789 27.1929 339.024 27.4316 338.41 27.9088C337.797 28.3861 337.335 29.0452 337.024 29.8861C336.714 30.727 336.558 31.6891 336.558 32.7725C336.558 33.8634 336.714 34.8369 337.024 35.6929C337.342 36.5414 337.808 37.2119 338.422 37.7043C339.043 38.1891 339.804 38.4316 340.706 38.4316ZM352.277 41.4998V24.0452H356.391V41.4998H352.277ZM354.345 21.5679C353.694 21.5679 353.133 21.352 352.664 20.9202C352.194 20.4808 351.959 19.9543 351.959 19.3407C351.959 18.7195 352.194 18.1929 352.664 17.7611C353.133 17.3217 353.694 17.102 354.345 17.102C355.004 17.102 355.565 17.3217 356.027 17.7611C356.497 18.1929 356.732 18.7195 356.732 19.3407C356.732 19.9543 356.497 20.4808 356.027 20.9202C355.565 21.352 355.004 21.5679 354.345 21.5679ZM364.684 41.852C363.578 41.852 362.581 41.6551 361.695 41.2611C360.816 40.8596 360.119 40.2687 359.604 39.4884C359.097 38.7081 358.843 37.746 358.843 36.602C358.843 35.6172 359.025 34.8028 359.388 34.1588C359.752 33.5149 360.248 32.9998 360.877 32.6134C361.506 32.227 362.214 31.9354 363.002 31.7384C363.797 31.5338 364.619 31.3861 365.468 31.2952C366.49 31.1891 367.32 31.0945 367.956 31.0111C368.593 30.9202 369.055 30.7838 369.343 30.602C369.638 30.4126 369.786 30.121 369.786 29.727V29.6588C369.786 28.8028 369.532 28.1399 369.025 27.6702C368.517 27.2005 367.786 26.9657 366.831 26.9657C365.824 26.9657 365.025 27.1854 364.434 27.6248C363.85 28.0641 363.456 28.5831 363.252 29.1816L359.411 28.6361C359.714 27.5755 360.214 26.6891 360.911 25.977C361.608 25.2573 362.46 24.7195 363.468 24.3634C364.475 23.9998 365.589 23.8179 366.809 23.8179C367.65 23.8179 368.487 23.9164 369.32 24.1134C370.153 24.3104 370.915 24.6361 371.604 25.0907C372.294 25.5376 372.847 26.1475 373.263 26.9202C373.687 27.6929 373.9 28.6588 373.9 29.8179V41.4998H369.945V39.102H369.809C369.559 39.5869 369.206 40.0414 368.752 40.4657C368.305 40.8823 367.74 41.2195 367.059 41.477C366.384 41.727 365.593 41.852 364.684 41.852ZM365.752 38.8293C366.578 38.8293 367.294 38.6664 367.9 38.3407C368.506 38.0073 368.972 37.5679 369.297 37.0225C369.631 36.477 369.797 35.8823 369.797 35.2384V33.1816C369.669 33.2876 369.449 33.3861 369.138 33.477C368.835 33.5679 368.494 33.6475 368.115 33.7157C367.737 33.7838 367.362 33.8445 366.99 33.8975C366.619 33.9505 366.297 33.996 366.025 34.0338C365.411 34.1172 364.862 34.2535 364.377 34.4429C363.892 34.6323 363.509 34.8975 363.229 35.2384C362.949 35.5717 362.809 36.0035 362.809 36.5338C362.809 37.2914 363.085 37.8634 363.638 38.2498C364.191 38.6361 364.896 38.8293 365.752 38.8293Z" fill="#313131"/>
</svg>
